<?xml version="1.0" encoding="UTF-8" standalone="no"?>
<!-- Created with Inkscape (http://www.inkscape.org/) -->

<svg
   version="1.1"
   id="svg59"
   width="384"
   height="384"
   viewBox="0 0 384 384"
   sodipodi:docname="icon.png"
   inkscape:export-filename="icon.svg"
   inkscape:export-xdpi="96"
   inkscape:export-ydpi="96"
   xmlns:inkscape="http://www.inkscape.org/namespaces/inkscape"
   xmlns:sodipodi="http://sodipodi.sourceforge.net/DTD/sodipodi-0.dtd"
   xmlns="http://www.w3.org/2000/svg"
   xmlns:svg="http://www.w3.org/2000/svg">
  <defs
     id="defs63" />
  <sodipodi:namedview
     id="namedview61"
     pagecolor="#505050"
     bordercolor="#ffffff"
     borderopacity="1"
     inkscape:showpageshadow="0"
     inkscape:pageopacity="0"
     inkscape:pagecheckerboard="1"
     inkscape:deskcolor="#505050"
     showgrid="false" />
  <g
     inkscape:groupmode="layer"
     inkscape:label="Image"
     id="g65">
    <g
       id="g177"
       transform="translate(0,3.8927944)">
      <path
         style="fill:#020304;fill-opacity:1"
         d="m 134.25,296.33772 c -0.97066,-0.39167 -1.25,-9.41159 -1.25,-40.36204 0,-21.9217 -0.37968,-40.0923 -0.84374,-40.3791 -0.46405,-0.28681 -5.72177,0.79809 -11.68381,2.41087 -8.01117,2.16709 -11.18356,2.64727 -12.15626,1.84 -1.75539,-1.45684 -1.80854,-16.81259 -0.0662,-19.12204 0.6875,-0.91127 9.35,-4.40803 19.25,-7.77058 27.21535,-9.24375 30.41473,-10.20153 32.01987,-9.58558 1.28216,0.49201 1.48013,7.96856 1.48013,55.89937 0,41.70218 -0.29558,55.62696 -1.2,56.53138 -1.19188,1.19188 -22.80172,1.64668 -25.55,0.53772 z m 96.75337,-0.0758 c -4.72217,-0.88081 -14.71914,-6.01037 -18.67015,-9.57987 -8.39347,-7.583 -12.27562,-18.22897 -13.03858,-35.75549 -1.28344,-29.48295 9.35374,-51.246 30.01915,-61.41741 8.26503,-4.06801 19.72703,-6.73546 27.09625,-6.30589 L 261.5,183.5 l 0.28823,9.91736 c 0.31603,10.87367 0.003,11.54086 -5.43289,11.56733 -5.23748,0.0255 -15.62512,3.7656 -19.60633,7.0593 -3.75507,3.10663 -9.45814,11.58021 -8.46343,12.57492 0.29071,0.29071 1.80788,-0.12489 3.37149,-0.92356 C 235.08989,221.94192 243.8714,220 248.36772,220 c 18.05831,0 31.69145,18.37584 30.46882,41.06833 -1.25937,23.37456 -23.49364,39.73359 -47.83317,35.19362 z m 15.49355,-24.55887 c 7.03824,-7.03824 7.23579,-19.5055 0.41957,-26.4773 -3.95306,-4.04328 -8.24539,-4.87823 -13.75177,-2.67501 -5.28651,2.11524 -7.16472,5.53195 -7.16472,13.03355 0,7.3625 1.70181,12.88496 5.08759,16.50945 2.25202,2.41079 3.51586,2.90623 7.41362,2.90623 3.98158,0 5.20202,-0.50323 7.99571,-3.29692 z m 96.11036,6.89111 c -0.4753,-8.74819 -0.60929,-43.95138 -0.29776,-78.22931 0.3191,-35.11002 0.18538,-62.55902 -0.30624,-62.86285 -1.69205,-1.04575 -299.995813,-1.04776 -300.169121,-0.002 -0.09115,0.55 -0.203626,7.075 -0.249944,14.5 -0.04632,7.425 -0.269469,42.3 -0.495891,77.5 l -0.411676,64 L 39.840115,244 C 39.380021,216.775 39.115275,169.525 39.251791,139 39.498658,83.800136 39.512348,83.469461 41.783347,77.852906 44.305116,71.616154 50.308109,64.193258 55.278938,61.16517 62.184671,56.958392 67.974734,55.804471 85.5,55.142312 l 17,-0.642312 0.56738,-4 c 0.78629,-5.543251 6.23159,-13.175876 10.76868,-15.094333 4.02844,-1.703382 9.55501,-1.289037 14.09062,1.05642 2.585,1.336751 7.40264,10.673731 8.27516,16.037913 0.32008,1.967806 1.20136,2.004164 54.74734,2.258702 58.4585,0.27789 56.00416,0.491907 56.03551,-4.886257 0.008,-1.445156 0.69861,-3.194648 1.53376,-3.887761 0.83515,-0.693113 2.24583,-2.793036 3.13485,-4.666495 2.02934,-4.276508 6.40861,-6.590665 12.25019,-6.473411 7.56863,0.151919 9.96846,1.739019 13.20594,8.733613 1.58981,3.434804 2.89057,7.158255 2.89057,8.274337 0,1.116081 0.49144,2.332962 1.09208,2.704181 0.60065,0.371219 6.11315,0.61328 12.25,0.537914 33.93612,-0.416764 48.18454,9.328492 50.61694,34.619623 0.46472,4.832055 0.54514,52.885554 0.17869,106.785554 -0.49853,73.32928 -0.88381,93.99584 -1.53043,82.09419 z"
         id="path187" />
      <path
         style="fill:#020304;fill-opacity:1"
         d="M 232.78047,295.99827 C 217.41048,293.31555 206.3511,282.93555 201.3515,266.5 c -2.51947,-8.28244 -2.49037,-31.17506 0.0515,-40.5 5.2417,-19.2295 18.33736,-33.75076 35.10902,-38.93099 9.28565,-2.86805 22.27578,-4.49001 24.06532,-3.00483 1.53064,1.27031 2.06716,16.41119 0.65736,18.55087 -0.40408,0.61327 -3.73202,1.63195 -7.39541,2.26372 -9.13008,1.57453 -13.23084,3.47196 -18.83711,8.71597 -4.47818,4.18881 -7.93235,9.80841 -6.75349,10.98727 0.28483,0.28484 3.25621,-0.40459 6.60305,-1.53206 17.08123,-5.75425 32.33073,0.0736 39.42343,15.06637 9.08617,19.20659 4.27812,40.02054 -11.90218,51.52431 -7.5886,5.3953 -19.92345,8.04531 -29.59251,6.35764 z m 11.83302,-21.90429 C 248.8566,271.50661 252,264.69401 252,258.0854 c 0,-9.82916 -5.66359,-17.08853 -13.32673,-17.08166 -4.57958,0.004 -9.91694,2.71452 -11.62305,5.90243 -4.47504,8.36169 -0.0615,25.03294 7.44978,28.1398 3.33067,1.37766 6.83379,1.0479 10.11349,-0.95199 z m -111.0065,20.32423 C 133.27314,293.54823 133,275.274 133,253.80881 v -39.02762 l -3.25,0.45379 c -1.7875,0.24958 -7.16111,1.52521 -11.94135,2.83472 -4.78024,1.30951 -8.99627,2.07601 -9.36895,1.70333 -0.90952,-0.90952 -0.57832,-18.03441 0.36708,-18.97981 0.70849,-0.70849 18.82297,-7.25078 38.15974,-13.78191 11.49342,-3.88199 12.68741,-3.86342 13.58234,0.21116 0.74189,3.37777 -0.41506,106.72563 -1.20933,108.02753 -0.25166,0.4125 -6.00786,0.75 -12.79156,0.75 -10.3245,0 -12.43289,-0.25771 -12.94098,-1.58179 z M 70.5,136 40.5,135.5 V 108 c 0,-26.073327 0.112105,-27.742569 2.16089,-32.17567 3.060469,-6.622153 9.612514,-13.318273 16.19625,-16.552394 5.500029,-2.701773 6.14421,-2.780181 25.449782,-3.097682 l 19.806918,-0.325745 -0.30692,17.825745 c -0.27903,16.205764 -0.12516,18.183396 1.69308,21.761212 2.8692,5.645814 6.40884,7.866664 13.23656,8.304894 7.14526,0.45861 11.16035,-1.74717 14.4731,-7.951131 C 135.34613,91.788162 135.5,90.324302 135.5,74 V 56.5 l 56.29129,-0.258345 56.29129,-0.258344 -0.28891,17.758344 c -0.2621,16.110218 -0.10352,18.12359 1.70871,21.693811 2.76547,5.448184 6.38513,7.807734 12.79258,8.339084 6.77763,0.56206 10.73917,-1.35353 14.45931,-6.991728 C 279.49362,92.631088 279.5,92.579437 279.5,74.560708 V 56.5 l 19.5,0.01066 c 19.23315,0.01051 19.58211,0.04886 25.5,2.802263 7.78572,3.622442 12.66125,8.467164 16.16309,16.060965 l 2.82503,6.126114 0.006,27.332298 0.006,27.3323 -121.5,0.1677 C 155.175,136.42454 87,136.275 70.5,136 Z"
         id="path185" />
      <path
         style="fill:#020304;fill-opacity:1"
         d="M 135.69757,294.36424 C 135.31391,293.98057 135,275.75024 135,253.85239 V 214.0381 l -2.25,-0.53952 c -1.2375,-0.29674 -6.75,0.76701 -12.25,2.36388 -5.5,1.59687 -10.35769,2.5759 -10.79486,2.17561 -0.43717,-0.40028 -0.66217,-4.2845 -0.5,-8.63161 l 0.29486,-7.90382 3.5,-1.17429 c 1.925,-0.64586 12.66516,-4.35895 23.86703,-8.25132 C 148.0689,188.18466 157.63524,185 158.12557,185 c 0.5143,0 0.78212,23.16525 0.63297,54.75 L 158.5,294.5 l -11.05243,0.2809 c -6.07884,0.1545 -11.36634,-0.033 -11.75,-0.41666 z m 93.23178,-0.66765 c -13.70234,-3.88628 -22.2635,-13.36412 -26.39324,-29.21928 -1.97677,-7.5893 -1.98986,-26.67129 -0.0247,-35.94862 4.54655,-21.4635 18.63401,-36.06712 40.08457,-41.55325 C 246.84416,185.88895 252.49794,185 255.15996,185 H 260 v 8.8601 8.86009 l -5.50297,0.56796 c -11.06158,1.14166 -21.68083,8.12157 -26.87471,17.66445 -3.52612,6.47864 -2.45243,6.9833 7.64546,3.59355 8.58702,-2.88257 12.96384,-3.12634 20.43221,-1.13799 11.9052,3.1696 18.94597,12.99372 21.32272,29.75199 2.29058,16.15069 -6.1361,31.88207 -20.63313,38.51903 -6.80791,3.11677 -20.13259,4.09568 -27.46023,2.01741 z M 245.5,275.15847 c 4.47891,-2.73819 7.5,-9.6093 7.5,-17.05784 0,-10.93669 -5.90163,-18.43396 -14.51067,-18.43396 -11.83259,0 -17.39834,11.17464 -12.97854,26.05771 2.92127,9.83699 12.18142,14.2074 19.98921,9.43409 z M 46.126408,134.26014 l -5.373591,-0.37323 0.45519,-26.69346 c 0.435861,-25.559949 0.556092,-26.903977 2.8314,-31.651258 3.144205,-6.560181 8.879532,-12.143751 15.812631,-15.39423 C 65.32304,57.582965 66.079636,57.5 84,57.5 h 18.5 l 0.2115,16 c 0.25494,19.287005 0.60963,21.539755 4.0316,25.606538 3.39342,4.032852 7.87331,5.893462 14.18999,5.893462 4.17898,0 5.58453,-0.51558 8.5832,-3.14844 6.38175,-5.603255 6.90192,-7.462313 7.47075,-26.69973 L 137.5,57.80366 192,57.65183 246.5,57.5 l 0.21681,16 c 0.26079,19.245327 0.6179,21.555894 3.9421,25.50648 3.665,4.35561 7.42442,5.99352 13.75663,5.99352 4.75945,0 6.00605,-0.43127 9.10075,-3.14844 C 279.9077,96.239819 280.41824,94.404825 280.98704,75 L 281.5,57.5 l 18.62458,0.05098 18.62458,0.05098 6.58982,3.24416 c 7.6178,3.750231 11.83891,8.349652 14.71653,16.035485 1.80625,4.824328 2.03714,8.0862 2.22969,31.499995 L 342.5,134.5 197,134.56668 c -80.025,0.0367 -147.918116,-0.10127 -150.873592,-0.30654 z"
         id="path183" />
      <path
         style="fill:#020304;fill-opacity:1"
         d="M 135.69757,294.36424 C 135.31391,293.98057 135,275.77199 135,253.90072 135,207.47625 136.29776,211.333 122.05513,215.43049 117.14282,216.84372 112.45665,218 111.64142,218 c -1.08278,0 -1.66567,-1.71289 -2.16289,-6.35593 -0.93069,-8.69057 -0.53836,-9.94653 3.53513,-11.31704 1.91749,-0.64513 12.6515,-4.35763 23.85337,-8.25 C 148.0689,188.18466 157.63524,185 158.12557,185 c 0.5143,0 0.78212,23.16525 0.63297,54.75 L 158.5,294.5 l -11.05243,0.2809 c -6.07884,0.1545 -11.36634,-0.033 -11.75,-0.41666 z m 94.58386,-0.33387 c -6.40081,-1.52119 -14.24212,-6.19278 -18.68029,-11.1291 C 203.58059,273.98048 200.38047,261.28865 201.2883,242 202.69511,212.10939 216.56569,193.63288 242.59601,186.97544 246.84416,185.88895 252.49794,185 255.15996,185 H 260 v 9 9 h -3.39466 c -11.02811,0 -23.38308,7.66367 -29.00379,17.99075 -3.64071,6.68919 -2.52058,8.31345 3.63328,5.26848 7.05827,-3.49247 15.72688,-4.84239 21.91833,-3.41323 10.69482,2.46866 17.15041,8.38583 21.44238,19.654 1.45416,3.81778 1.90446,7.60088 1.90446,16 0,11.78227 -1.02914,15.06238 -7.31693,23.32074 -7.57579,9.95002 -25.17165,15.47264 -38.90164,12.20963 z m 16.11161,-19.1249 c 6.41264,-5.04418 8.95601,-18.15295 5.09904,-26.28092 -2.00026,-4.21524 -6.53446,-8.3461 -10.15974,-9.25599 -3.80191,-0.95421 -10.33622,1.43532 -14.03243,5.13153 C 224.2522,247.5478 224,248.29054 224,254.2185 224,268.54518 229.52976,277 238.89994,277 c 3.38881,0 5.625,-0.62507 7.4931,-2.09453 z M 113.33975,109.60352 c -6.56784,-2.11472 -10.36654,-5.42036 -13.10657,-11.405364 -2.252827,-4.920824 -2.44764,-6.314028 -1.90037,-13.590524 0.63948,-8.502509 2.38262,-16.225538 3.42658,-15.181576 0.33748,0.337479 0.8785,6.211845 1.20227,13.054147 0.49063,10.368698 0.92785,12.894842 2.62529,15.168384 3.78389,5.068103 7.0162,6.731353 13.938,7.172103 l 6.50341,0.41411 4.3707,-4.3707 c 5.31367,-5.313672 6.58793,-9.416699 6.59536,-21.236545 0.005,-7.764557 0.19249,-8.717324 1.50242,-7.630174 0.82327,0.683248 2.17327,3.520024 3,6.303946 2.96127,9.971662 1.45244,17.621304 -4.82275,24.450993 -2.29575,2.49861 -5.52409,5.10867 -7.17409,5.80013 -4.92065,2.0621 -11.65906,2.50037 -16.16025,1.05107 z m 144,0 C 247.37537,106.39518 242,98.469235 242,86.985157 c 0,-6.691142 2.55964,-17.755693 3.81803,-16.504193 0.37508,0.373028 0.90697,6.00997 1.18197,12.526538 0.4205,9.96445 0.83262,12.297012 2.59195,14.670401 3.85943,5.206487 8.10317,7.322097 14.68751,7.322097 5.70704,0 6.18035,-0.19665 10.237,-4.2533 5.18694,-5.186937 6.47058,-9.37181 6.47796,-21.119145 0.005,-7.764557 0.19249,-8.717324 1.50242,-7.630174 C 284.3656,73.54831 287,82.217078 287,86.815482 c 0,5.74147 -2.13634,11.057826 -6.38149,15.880568 -6.1184,6.95087 -14.97863,9.57996 -23.27876,6.90747 z"
         id="path181" />
      <path
         style="fill:#020304;fill-opacity:1"
         d="m 139.8125,293.31689 c 0.72187,-0.28887 1.58437,-0.25335 1.91667,0.0789 0.33229,0.33229 -0.25834,0.56864 -1.3125,0.52522 -1.16495,-0.048 -1.4019,-0.28494 -0.60417,-0.60416 z M 150,293.125 c 0,-0.48125 1.35,-1.145 3,-1.475 2.27157,-0.45431 3.00372,-1.15239 3.01531,-2.875 0.0124,-1.83562 0.20253,-1.9853 0.98469,-0.775 0.53316,0.825 0.97627,2.5125 0.98469,3.75 0.0133,1.96089 -0.49867,2.25 -3.98469,2.25 -2.2,0 -4,-0.39375 -4,-0.875 z M 112,107.87927 C 108.44554,106.46608 104.16665,102.15814 101.69073,97.5 99.489294,93.358255 98.823308,83.658628 100.33468,77.75 101.7283,72.30173 103,75.060551 103,83.532119 c 0,13.094343 3.33816,18.551591 12.85849,21.021131 6.43285,1.66866 11.4333,0.5255 15.67198,-3.58278 C 135.45573,97.165958 137,91.825963 137,82.05718 137,78.175731 137.39152,75 137.87004,75 c 1.59462,0 3.38646,8.893407 2.9215,14.500231 -0.61157,7.37465 -4.61,13.047809 -11.80521,16.749769 -5.64076,2.90219 -12.20183,3.53151 -16.98633,1.62927 z M 256.19335,107.737 c -4.32389,-1.38454 -10.89988,-8.933412 -12.29479,-14.113731 -1.0201,-3.788354 -0.57924,-13.68588 0.76572,-17.190792 1.3485,-3.514128 2.17364,-0.700625 2.49201,8.497113 0.28114,8.121989 0.71904,10.431774 2.4055,12.688211 6.88396,9.210569 18.93099,10.627689 26.24002,3.086679 C 279.85489,96.522763 281,92.569023 281,82.756602 281,78.490471 281.40598,75 281.90217,75 c 2.90489,0 4.13615,14.670037 1.70229,20.282119 -4.50698,10.392351 -16.63821,15.904461 -27.41111,12.454881 z"
         id="path179" />
    </g>
  </g>
</svg>
